<svg width="37" height="36" viewBox="0 0 37 36" fill="none" xmlns="http://www.w3.org/2000/svg">
<path d="M29.8234 9.1416C29.8113 9.17252 29.7181 9.26418 29.6879 9.31133C29.6524 9.20669 29.8668 9.02995 29.8234 9.1416ZM31.7297 17.6521C31.7391 17.6015 31.7485 17.5509 31.7579 17.5003C31.6682 17.5978 31.5766 17.7502 31.4871 17.8361C31.4724 17.8501 31.4509 17.7699 31.4205 17.8063C31.3902 17.8428 31.467 17.8879 31.4339 17.9489C31.3965 18.0173 31.1376 18.2655 31.0663 18.3651C30.8001 18.7375 30.5675 19.1395 30.2663 19.4874C30.4938 19.067 30.1576 19.412 30.1019 19.5357C30.0898 19.5633 30.2253 19.657 29.9106 20.0153C29.7106 20.2431 29.686 19.879 29.4827 20.3548C29.8449 20.1401 29.61 20.4403 29.4346 20.6883C29.4043 20.7311 29.1341 21.0572 29.0293 21.212C28.9935 21.265 29.0054 21.3945 28.957 21.4642C28.9237 21.5121 28.8596 21.5197 28.8102 21.591C28.5797 21.9227 28.3475 22.2449 28.0952 22.5614C28.0565 22.2397 27.9092 22.6551 27.8894 22.6641C27.7839 22.7061 28.0281 22.3447 27.8957 22.4613C27.7586 22.6595 27.6215 22.8577 27.4844 23.0559C27.6234 22.9127 27.4799 23.3774 27.3714 23.4026C27.5513 23.4885 26.5839 24.1864 26.5343 24.3644C26.5241 24.4016 26.7416 24.2691 26.3824 24.6833C26.3434 24.7281 26.309 24.675 26.2951 24.7033C26.2867 24.7202 26.3715 24.9221 26.2169 24.9573C26.1604 24.9701 26.2268 24.6714 25.9026 25.1964C26.2017 25.1122 25.4811 25.945 25.3229 26.0793C25.3675 26.062 25.4121 26.0447 25.4567 26.0274C25.2827 26.1473 25.3137 26.2148 25.2842 26.249C25.1654 26.3866 24.9651 26.5486 24.87 26.6882C24.7585 26.8515 24.8539 26.9225 24.6803 27.0807C24.7338 27.0522 24.7873 27.0237 24.8408 26.9952C24.7415 27.1196 24.6422 27.2441 24.5429 27.3686C24.6342 26.9785 24.4898 27.4282 24.4751 27.4539C24.4518 27.4953 24.44 27.4026 24.3998 27.4708C24.3961 27.4781 24.4519 27.5046 24.3856 27.6064C24.2468 27.8189 24.2091 27.7415 24.1468 27.8277C24.1413 27.8358 24.2056 27.8407 24.1072 27.9965C23.7945 28.4916 24.0751 27.9693 24.0823 27.9468C24.0917 27.9172 23.7891 27.9433 24.1481 27.5914C24.0287 27.7104 23.9373 27.6641 23.9242 27.6777C23.9127 27.6899 23.7532 27.9309 23.7466 27.9458C23.6903 28.0805 23.8199 28.0208 23.8135 28.0504C23.8081 28.0745 23.5296 28.3015 23.6488 28.4902C23.3959 28.5109 23.5652 28.31 23.7067 28.0677C23.6991 28.0116 23.4869 28.2359 23.4774 28.2489C23.2437 28.5677 23.5003 28.4847 23.5303 28.614C23.5459 28.6818 23.3639 28.7479 23.5658 28.7117C23.5045 28.8029 23.4678 28.8452 23.4458 28.8604L23.5417 28.7225C23.3416 28.9921 23.4132 28.8643 23.507 28.6997L23.4124 28.8358C23.4109 28.8155 23.4125 28.7935 23.4048 28.7973C23.3985 28.8005 23.3919 28.8072 23.3854 28.816L23.479 28.6813C23.1496 29.2003 22.6578 29.5927 22.5979 29.6275C22.4824 29.699 22.8382 29.3901 22.3975 29.6745C22.3633 29.697 22.1886 29.8244 22.1509 29.872C22.1152 29.9129 22.1277 29.975 22.594 29.689C22.2809 29.9019 22.1116 29.9788 21.9862 30.0434C21.8567 30.1068 21.7938 30.1349 21.7349 30.1578C21.6225 30.2 21.5652 30.2011 21.4347 30.1683C21.0817 30.5629 21.0978 30.0975 20.9477 30.121C20.592 30.1586 20.738 30.3429 20.7203 30.3584C20.5824 30.4644 19.7771 30.4814 19.6133 30.5117C19.6708 30.3571 20.206 30.4657 20.3423 30.4122C20.7511 30.2579 19.7487 30.4052 20.0303 30.1753C19.9174 30.2404 19.8033 30.3031 19.6933 30.3635C19.4791 30.2486 19.7631 30.1864 19.2241 30.2479C19.137 30.3591 19.6066 30.2195 19.5152 30.307C19.4601 30.3607 19.1444 30.3786 19.1389 30.4039C19.1329 30.4365 19.4175 30.3927 19.3744 30.4421C19.2719 30.5596 18.2453 30.4407 19.0275 30.3949C18.8082 30.396 18.7047 30.1837 18.517 30.2407C18.3894 30.2737 19.0762 30.6091 18.0301 30.4865C18.0172 30.3881 18.4516 30.4889 18.4632 30.4798C18.4794 30.4697 18.4126 30.2432 18.4001 30.2314C18.3637 30.2041 17.289 30.217 17.0057 30.0227C17.0424 30.0947 16.8186 30.0618 16.4838 29.9548C16.1741 29.867 15.5956 29.5791 15.3802 29.4427C15.292 29.3997 15.5553 29.6596 15.4642 29.612C15.3254 29.539 15.1092 29.4175 14.7845 29.0905L14.5258 28.7958C14.4466 28.6613 14.3765 28.4399 14.3073 28.3454C14.2037 28.2039 14.1632 28.263 14.1573 28.2551C14.1133 28.1916 14.1875 28.2124 14.1587 28.1751C14.1151 28.1187 13.8241 27.7246 13.8014 27.711C13.7947 27.7071 13.7817 27.8179 13.7049 27.7423C13.6916 27.7292 13.7719 27.6822 13.5476 27.4558C13.2775 27.1831 13.6178 27.7354 13.4448 27.6688C13.4048 27.3911 13.3015 27.4804 13.2696 27.4213C13.2587 27.4007 13.2464 27.1946 13.1275 27.0519C13.2236 27.146 13.3197 27.2402 13.4158 27.3344C13.3521 27.2181 13.1771 27.0318 13.1296 26.9323C13.1063 26.8837 13.2083 26.8601 13.1365 26.771C13.1209 26.7524 12.8783 26.8174 13.1434 26.9915C13.0923 27.0609 13.0482 26.9151 12.9893 26.8769C12.9803 26.8712 12.8466 26.9243 12.8633 26.8049C12.8677 26.7759 13.3223 26.7049 12.7437 26.4316C12.725 26.4228 12.7238 26.5041 12.7046 26.4963C12.6915 26.4909 12.6191 26.3632 12.6037 26.3549C12.5875 26.3465 12.5866 26.4358 12.566 26.427C12.4606 26.3816 12.5539 26.1438 12.6667 26.3179C12.646 26.2466 12.6254 26.1754 12.6047 26.1041C12.519 26.2633 12.5018 26.0464 12.4395 25.9737C12.0404 25.5077 12.2053 25.8984 12.0971 25.8487C11.9232 25.7687 12.2259 25.6992 12.0054 25.5515C11.9849 25.5379 12.0751 25.852 11.767 25.3401C11.8241 25.4067 11.8812 25.4733 11.9383 25.54C12.034 25.4027 11.7368 25.2958 11.7226 25.2809C11.5631 25.1095 11.7048 25.1994 11.4287 24.975C11.404 24.955 11.3942 24.8776 11.3383 24.8372C11.1071 24.6692 11.5197 25.1538 11.4791 25.2069C11.459 25.2327 11.0488 24.6859 11.0464 24.6582C11.0385 24.5386 11.2585 24.886 11.2765 24.7737C11.2824 24.7332 10.6409 23.9975 10.5473 23.823C10.4395 23.6213 10.5492 23.409 10.3556 23.556C10.506 23.3601 10.3426 23.4147 10.3263 23.3908C10.1313 23.1009 10.1328 23.0989 9.93241 22.8757C9.88822 22.8263 9.91164 22.738 9.88771 22.7269C9.87357 22.7206 9.82763 22.788 9.76809 22.7498C9.68577 22.6964 9.4101 22.207 9.41887 22.1481C9.42765 22.0892 9.5767 22.3229 9.60237 22.2408C9.4862 22.078 9.35558 21.9366 9.23884 21.7726C9.19052 21.7043 9.25577 21.7083 9.23454 21.6791C9.22565 21.6665 9.01538 21.4642 9.00841 21.485C8.99235 21.5334 9.55796 22.2226 9.34656 22.0892C9.30576 22.0634 9.29833 21.8674 9.20433 21.9717C8.74397 21.3214 8.2836 20.6712 7.82324 20.0209C8.18391 20.3206 8.42439 20.785 8.72405 21.159C8.76502 21.2103 8.88975 21.3944 8.92865 21.3305C8.69468 20.9965 8.35715 20.617 8.1548 20.2791C8.14836 20.2683 8.2261 20.2665 8.2054 20.2233C8.16669 20.1425 7.91254 19.9778 7.90403 19.9238C7.90387 19.9136 8.0684 19.992 8.07996 19.9208C8.10959 19.7381 7.8532 19.8946 7.78957 19.806C7.74046 19.7374 7.50969 19.2003 7.35138 19.144C7.18284 19.0843 7.56106 19.5094 7.47247 19.5247C7.1751 19.2689 7.00579 18.9086 6.77677 18.627C6.77268 18.6221 6.75711 18.7041 6.70086 18.6452C6.60297 18.5428 6.6505 18.4596 6.61992 18.3966C6.58679 18.3288 6.41737 18.1292 6.4216 18.0818C6.42223 18.0757 6.52402 18.0643 6.53088 18.0691C6.62894 18.1374 6.56341 18.2389 6.56857 18.248C6.58888 18.2815 6.64675 18.2853 6.66634 18.315C6.69856 18.364 6.68622 18.4141 6.73046 18.4775C6.76086 18.5213 6.79091 18.4334 6.81939 18.4763C6.8296 18.4922 6.81333 18.7611 6.96795 18.6662C7.01665 18.6361 6.06143 17.2736 5.92408 17.1695C5.99374 17.2958 6.0634 17.422 6.13306 17.5482C5.99854 17.2866 5.67232 17.0988 5.82644 16.9492C5.18613 16.0876 4.54582 15.226 3.90551 14.3643C3.80313 14.2013 3.97585 14.2011 3.75205 13.9754C3.76709 14.0666 3.78212 14.1578 3.79716 14.2491C3.72296 14.1023 3.33397 13.498 3.24092 13.4233C3.22884 13.4137 3.11777 13.4728 3.00026 13.3374C2.89604 13.2173 2.95419 13.1404 2.91657 13.0622C2.88479 12.9968 2.8167 12.9481 2.80788 12.9282C2.80124 12.9129 2.84239 12.8731 2.82645 12.8361C2.77561 12.7197 2.70962 12.8965 2.78074 12.6874C2.80445 12.7068 2.82816 12.7261 2.85188 12.7455C2.78228 12.6113 2.72454 12.3993 2.89076 12.548C2.91936 12.5735 2.85603 12.5814 2.87324 12.6036C3.55209 13.47 3.10123 12.708 2.79847 12.4543C2.8027 12.3261 2.42493 11.9162 2.42642 11.8918C2.42923 11.8573 2.53876 11.8929 2.50745 11.76C2.50092 11.7319 2.01239 11.1712 2.26114 11.3172C2.31247 11.3473 2.51073 11.6437 2.56556 11.7098C2.57947 11.4445 2.09492 11.2202 2.06752 11.1741C1.95806 10.9875 2.43748 11.4098 2.15871 11.0142C1.94433 10.71 2.06563 11.0571 1.93946 10.9737C1.86859 10.9268 1.71288 10.5158 1.58941 10.6251C1.48745 10.5213 1.60804 10.5352 1.60214 10.5173C1.59588 10.5001 1.38377 10.305 1.35509 10.2108C1.35169 10.1993 1.44094 10.1751 1.43945 10.1616C1.43524 10.1365 1.25479 9.92979 1.24234 9.92549C1.23408 9.92301 1.21451 10.0204 1.18376 10.0102C1.1481 9.99814 1.00146 9.77847 0.975643 9.77999C0.937481 9.78344 1.15265 10.0284 1.05323 10.0364C0.978554 9.90468 0.785366 9.74501 0.671608 9.70761C0.701672 9.7151 0.792477 9.82869 0.817848 9.87285C0.706158 9.92874 0.517216 9.68019 0.659206 9.70567C0.576542 9.68365 0.582844 9.73722 0.520561 9.7369C0.504578 9.73655 0.44379 9.66168 0.415638 9.6599C0.410812 9.66056 0.43475 9.76761 0.40287 9.767C0.345211 9.76583 0.175121 9.52794 0.169907 9.50178C0.155411 9.42803 0.332733 9.59228 0.385849 9.57652C0.393867 9.57392 0.350704 9.35146 0.35593 9.34358C0.42485 9.27565 0.507427 9.49664 0.560268 9.42349C0.54076 9.36814 0.521252 9.31279 0.501743 9.25744C0.702278 9.37464 0.909134 9.71764 1.05065 9.73831C0.832764 9.50348 0.632107 9.23668 0.810368 9.10053C0.885403 9.04314 1.01317 9.1185 1.02897 9.09964C1.08475 9.03117 0.894302 8.93661 0.893616 8.92828C0.89423 8.92048 0.896656 8.91527 0.900593 8.91225C0.900593 8.91225 0.900597 8.91224 0.900597 8.91224C0.940502 8.88159 1.13518 9.0754 1.1617 9.0722C1.20802 9.06549 1.26735 8.86702 1.29693 8.84453C1.30542 8.84332 1.45512 8.97285 1.46666 8.88145C1.47824 8.78905 1.37594 8.65359 1.37771 8.64473C1.38902 8.59515 1.59829 8.80876 1.62204 8.80168C1.63416 8.79825 1.59398 8.62804 1.60753 8.61177C1.62155 8.59598 1.73126 8.66447 1.81226 8.66245C1.8725 8.66104 1.83888 8.55613 1.85603 8.56593C1.86798 8.57319 2.03828 8.7961 2.05347 8.80183C2.07601 8.81041 2.08204 8.7229 2.09939 8.72163C2.12422 8.71965 2.1628 8.80425 2.17266 8.7818C2.17997 8.76501 2.12476 8.36449 2.16858 8.33367C2.24338 8.28124 2.30354 8.70408 2.37819 8.21022C2.37859 8.20685 2.30696 8.15567 2.30729 8.15246C2.32815 8.07086 2.57354 8.22284 2.35818 7.9719C2.82377 8.38876 2.51354 7.94889 2.69077 7.92729C2.75899 7.91912 2.92341 8.09307 2.93112 8.08854C2.97642 8.02452 2.88412 7.9998 2.89752 7.95695C2.90516 7.93319 3.09781 8.05382 3.10938 7.98445C3.11529 7.94864 2.96998 7.77508 2.96839 7.76453C2.95252 7.66385 3.06106 7.71885 3.07655 7.68214C3.087 7.65763 3.00529 7.54831 3.00645 7.54295C3.00984 7.53308 3.19718 7.6228 3.24686 7.6333C3.28487 7.6411 3.24928 7.52953 3.27053 7.53902C3.39818 7.5965 3.42432 7.90745 3.45769 7.56279C3.45978 7.54171 3.39683 7.46943 3.39741 7.46544C3.41454 7.37771 3.52647 7.51383 3.58919 7.50537C3.69715 7.49062 3.50105 7.32204 3.68209 7.44843C3.63487 7.28551 3.57919 7.21731 3.45289 7.08129C3.80289 7.4577 4.10707 7.4517 3.75594 7.005C3.86305 7.15062 3.96038 7.05051 3.99516 7.09178C4.01667 7.11754 4.06744 7.40903 4.23862 7.12592C4.25996 7.0905 4.12416 6.99411 4.21703 6.9856C4.43391 7.30076 4.26172 6.96147 4.26974 6.95481C4.41672 6.84807 4.86773 7.67884 4.9819 7.7934C5.11437 7.92633 5.32862 7.97028 5.35342 8.00225C5.43459 8.10775 5.30967 8.06444 5.30663 8.10432C5.30404 8.14437 5.64507 8.35967 5.65052 8.37931C5.67087 8.45615 5.55727 8.44961 5.55847 8.45831C5.57197 8.56243 5.93523 8.92441 6.0061 9.04945C6.04769 9.01192 5.87706 8.78267 6.0569 8.86945C6.26642 8.97043 6.07848 9.12989 6.07321 9.1408C6.65515 9.89405 7.23709 10.6473 7.81903 11.4005C7.91564 11.3113 7.45807 10.8781 7.46312 10.8564C7.4934 10.7283 8.13258 11.5629 8.17451 11.6933C8.13724 11.5984 8.09996 11.5035 8.06269 11.4086C8.28402 11.4494 8.35453 11.8622 8.5547 12.0135C8.61942 12.0623 8.57402 11.9079 8.57906 11.908C8.67897 11.942 8.72915 12.0812 8.60266 12.0455C8.79301 12.1697 8.70811 12.1954 8.80346 12.3297C8.80842 12.3366 8.81354 12.2435 8.91286 12.3314C8.95937 12.3726 9.15783 12.6305 9.22652 12.6326C9.25518 12.6332 9.34141 12.3587 9.1682 12.4662C9.03089 12.1253 9.026 12.4328 8.9459 12.321C8.93389 12.3036 9.05321 12.2731 8.79995 12.031C9.00199 11.9589 9.12395 12.3681 9.18522 12.4072C9.31141 12.488 9.041 11.9632 8.84989 11.9757C9.00655 11.9181 8.8418 11.9299 8.76809 11.8233C8.68735 11.7066 8.7626 11.7267 8.71607 11.6657C8.58919 11.4987 8.55303 11.6362 8.52803 11.4373C8.38194 11.7622 8.31481 11.2279 8.29748 11.0704C8.44435 11.2354 8.59122 11.4003 8.73808 11.5652C8.74347 11.5452 8.74886 11.5252 8.75426 11.5051C8.78776 11.5525 8.82126 11.6 8.85477 11.6474C8.83659 11.6496 8.8184 11.6519 8.80021 11.6542C9.06394 11.8288 9.01693 11.957 9.03078 11.9771C9.21154 12.2342 9.43338 12.5212 9.62658 12.7732C9.65556 12.811 9.71707 12.7224 9.86491 13.0467C9.9121 13.1501 9.78502 13.1159 9.87104 13.2081C10.1389 13.2003 9.99976 13.3035 10.028 13.3407C10.1097 13.4469 10.2022 13.479 10.2102 13.4885C10.3177 13.6146 10.4584 13.8123 10.5755 13.9516C10.5783 13.9538 10.5735 13.8381 10.6298 13.9438C10.6495 13.981 10.6504 14.4495 10.9222 14.6507C10.8859 14.572 10.8496 14.4932 10.8133 14.4144C10.8526 14.5096 11.3343 15.0185 11.2908 14.8369C11.2641 14.7257 10.9632 14.6353 11.0861 14.5056C11.1855 14.7217 12.0288 15.689 12.057 15.7931C12.0608 15.8076 11.9637 15.7752 11.9695 15.7948C11.974 15.8099 12.1636 16.0342 12.1699 16.0785C12.1737 16.1049 12.0668 16.0235 12.0569 16.0444C12.0509 16.0607 12.2547 16.3661 12.3244 16.339C12.2467 16.2852 12.1125 16.0694 12.2413 16.1376C12.2577 16.1466 12.2748 16.2449 12.295 16.2555C12.482 16.3544 12.115 15.9116 12.0614 15.8407C12.3539 16.0711 12.6087 16.5795 12.9108 16.8748C12.9665 17.0452 12.6857 16.7318 12.763 16.9136C12.9234 17.2907 12.8928 16.9469 12.9063 16.9521C13.0142 16.9935 12.9626 17.4564 13.1576 17.3067C13.2159 17.4433 13.163 17.4253 13.3122 17.5666C13.3094 17.5351 13.3067 17.5035 13.3039 17.472C13.5541 17.5638 13.5599 18.1609 13.5164 18.1493C13.3996 18.1178 13.339 17.8512 13.3239 17.836C13.3015 17.8136 13.0508 17.8968 13.0183 17.4885C12.7998 17.4789 13.2606 17.9891 12.9802 17.8114C13.1233 17.9669 13.559 18.7248 13.6932 18.7789C13.7099 18.7849 13.7999 18.6283 13.863 18.8498C13.8929 18.9549 13.7421 18.7619 13.7403 18.8219C13.735 19.0064 14.9801 20.5037 15.2102 20.793C15.225 20.8119 15.1786 20.8365 15.1933 20.8549C15.2386 20.9114 15.4606 21.0736 15.5208 21.1909C15.433 20.9196 15.7568 21.3286 15.8293 21.4402C15.9393 21.6096 15.8595 21.6553 15.8972 21.736C16.0423 22.0474 16.5303 22.3275 16.5288 22.6572C16.6792 22.5236 16.7254 23.0743 16.8529 23.2431C16.9527 23.3752 17.2044 23.4848 17.1322 23.2583C17.2991 23.4906 17.5122 23.7064 17.6853 23.9116C17.714 23.9455 17.6297 23.9333 17.6801 23.99C17.685 23.9948 17.7369 23.9669 17.7812 24.0147C18.1482 24.4089 17.8912 24.2774 17.9236 24.3791C17.9416 24.436 17.9589 24.475 17.9748 24.5011C17.7753 24.2603 17.5375 23.9884 17.4775 23.913C17.4258 24.0564 17.9191 24.4471 18.0007 24.6099C18.0035 24.6156 17.9342 24.6416 17.9377 24.6469C17.9377 24.647 17.9378 24.6471 17.9379 24.6472C17.9744 24.7036 18.2552 25.026 18.2685 24.9049C18.272 24.8725 18.1523 24.7168 18.0043 24.5368C18.0552 24.5771 18.0894 24.4915 18.0989 24.4983C18.2121 24.5814 18.3522 24.8905 18.4154 24.9899C18.4299 25.0125 18.469 24.98 18.4718 24.9834C18.5276 25.075 18.386 25.1287 18.5712 25.1243C18.5456 25.3875 18.3294 24.8537 18.2602 24.9562C18.2299 25.0011 18.4716 25.3262 18.7064 25.5824L18.513 25.362C18.2831 25.1325 18.1745 25.0842 18.1157 25.04C18.0538 24.9992 18.0364 24.9836 18.0256 24.9677C18.01 24.9392 18.0303 24.9186 18.0374 24.8884C18.0334 24.9031 18.0285 24.9214 18.0292 24.9439C18.0149 24.9921 18.1888 25.0129 18.2341 24.9917C18.2407 24.9875 18.2595 24.8506 18.2666 24.8504C18.2771 24.8508 18.5363 24.9912 18.6571 24.9149C18.5997 24.8918 18.5432 24.8678 18.4894 24.843C18.8343 24.8705 18.7872 24.8205 18.6716 24.7738C18.6659 24.7731 18.6606 24.7675 18.6552 24.7666C18.5669 24.7303 18.4628 24.6899 18.463 24.6788C18.4526 24.6434 19.0347 24.6496 18.921 24.7707C18.904 24.7894 18.631 24.7193 18.763 24.8173C18.7863 24.8352 18.9666 24.814 18.9756 24.8235C19.04 24.8936 18.6391 24.9693 18.6809 25.0646C18.7836 24.98 18.9076 25.032 19.0201 25.0088C19.0709 24.9983 19.0823 24.9288 19.0885 24.9274C19.1794 24.9082 19.1295 24.9814 19.1599 24.9791C19.1786 24.9782 19.3424 24.8163 19.321 25.0304C19.8153 24.8278 19.4849 24.8739 19.1212 24.8924C19.235 24.8143 19.4434 24.839 19.5152 24.8116C19.5414 24.8021 19.5185 24.7333 19.5579 24.714C19.5856 24.6997 19.6749 24.6889 19.6688 24.7016C19.6626 24.7108 19.6316 24.7209 19.5003 24.7914C19.3784 24.873 19.0905 24.976 18.7029 25.5427L18.7798 25.4322C18.8444 25.3585 18.8981 25.2977 18.931 25.2601C18.8692 25.3867 18.9556 25.3999 19.0146 25.3105C19.0736 25.2211 18.9371 25.2323 18.9405 25.2089C18.9444 25.1841 19.2808 24.8086 19.3195 24.7334C19.126 25.06 19.2387 25.0371 19.435 24.7835C19.4255 24.834 19.416 24.8845 19.4065 24.9351C19.4926 24.7651 19.8214 24.5165 19.8575 24.4082C19.8631 24.3911 19.7745 24.402 19.7776 24.3924C19.8118 24.2993 20.0571 24.0773 20.0481 24.052C20.0408 24.0308 19.9151 24.11 19.9239 24.0527C19.9257 24.0408 20.0753 23.9853 20.1357 23.8667C20.1581 23.8228 20.0913 23.81 20.0957 23.798C20.1324 23.6981 20.18 23.808 20.2773 23.6475C20.3485 23.5299 20.3274 23.3878 20.4664 23.2551C19.9946 23.6796 20.3473 23.2905 20.4696 23.058C20.4893 23.0207 20.3783 22.9835 20.5693 22.8151C20.4183 23.3612 20.7446 22.7566 20.8288 22.6457C20.8339 22.64 20.8947 22.6814 20.936 22.6271C20.9394 22.6224 20.8944 22.5996 20.9289 22.5463C21.2563 22.0401 21.0737 22.3834 21.1809 22.3203C21.2265 22.2934 21.3431 22.016 21.3884 21.9515C21.399 21.9368 21.4357 21.9741 21.4756 21.9164C21.546 21.8142 21.5675 21.6921 21.6125 21.6235C21.6179 21.6157 21.6838 21.6636 21.7544 21.5229C21.7743 21.4834 21.78 21.4267 21.7244 21.4628C21.5407 21.5828 21.4173 21.976 21.2178 22.1177C21.0359 22.2469 21.4261 21.7047 21.4463 21.6764C21.4537 21.666 21.409 21.7951 21.4939 21.693C21.5663 21.6058 21.5754 21.3557 21.7 21.238C21.7094 21.2289 21.8854 21.191 21.8873 21.2001C21.888 21.2077 21.7864 21.3898 21.832 21.386C21.8373 21.3854 21.9145 21.279 21.9454 21.2803C21.9831 21.2819 22.2641 21.4181 22.287 21.4C22.345 21.3532 22.2607 21.3495 22.2923 21.3148C22.3598 21.2403 22.6383 21.0146 22.5592 20.9425C22.5202 20.9849 22.4811 21.0273 22.4421 21.0698C22.622 20.8064 22.5051 20.8891 22.5157 20.8409C22.5271 20.7889 22.5944 20.8553 22.6651 20.7739C22.6805 20.7562 22.931 20.3824 22.8945 20.3657C22.7976 20.6031 22.759 20.4603 22.7506 20.4683C22.7187 20.499 22.738 20.5822 22.7024 20.6285C22.4508 20.9538 22.6138 20.5591 22.5351 20.6217C22.5082 20.6434 22.5134 20.7298 22.5027 20.7395C22.4681 20.7712 22.4092 20.7289 22.3958 20.7571C22.3643 20.823 22.4965 20.8163 22.4974 20.824C22.5113 20.9136 22.2983 21.0686 22.3008 20.8766C22.2129 20.9284 22.3157 21.0176 22.2279 21.0454C22.0538 21.101 22.2072 20.9388 22.2284 20.8799C22.3041 20.6682 22.3838 20.6476 22.55 20.3914C22.6099 20.2992 22.6338 20.1554 22.661 20.1122C22.6782 20.085 23.0423 19.9766 22.7584 19.757C22.8561 19.6826 23.1561 19.6737 23.2192 19.5696C23.2757 19.4759 23.1529 19.4287 23.155 19.4176C23.158 19.4005 23.244 19.3002 23.256 19.2537C23.2698 19.1991 23.2153 19.1914 23.2484 19.113C23.331 18.9178 23.4322 18.9989 23.4515 18.9868C23.6756 18.8462 23.4633 18.8239 23.4837 18.7712C23.5028 18.7222 23.9815 18.1905 24.0326 18.0421C24.0174 18.1066 24.0023 18.1711 23.9871 18.2356C24.1168 18.1955 24.0791 18.0242 24.1971 18.1084C24.0216 17.952 24.281 17.8631 24.3162 17.805C24.33 17.782 24.2966 17.7601 24.315 17.7322C24.3866 17.623 24.5862 17.4049 24.6118 17.3359C24.7227 17.0379 24.143 17.5824 24.0995 17.6268C24.1745 17.5291 24.5451 16.9361 24.2647 17.1278C24.2214 17.1574 24.2538 17.2902 24.2406 17.315C24.1508 17.4828 24.1629 17.3079 24.147 17.3145C24.1205 17.3262 24.1202 17.4798 24.0921 17.4997C24.0829 17.5065 24.056 17.3995 23.9482 17.5432C23.9341 17.4233 24.2871 17.0562 24.3108 16.9913C24.3192 16.9682 24.0897 16.9832 24.4833 16.7362C24.4672 16.7306 24.4511 16.725 24.4349 16.7193C24.5719 16.5215 24.709 16.3236 24.846 16.1258C24.8608 16.1691 24.8418 16.3228 24.9296 16.1762C24.9801 16.0917 24.8696 16.1005 24.8729 16.0918C24.9064 16.0073 25.8499 14.7702 26.0209 14.5217C26.0791 14.4373 26.1941 14.167 26.206 14.1487C26.2777 14.0397 26.5863 13.6937 26.6332 13.6139C26.6623 13.564 26.5734 13.5665 26.6065 13.5271C26.6373 13.4904 26.6626 13.5704 26.6733 13.5607C26.7626 13.4806 27.2192 12.7089 27.3962 12.5761C27.3041 12.669 27.0306 13.2699 27.0768 13.2877C27.0837 13.2894 27.2182 13.1933 27.2172 13.1523C27.2961 13.1439 27.261 12.8901 27.3484 12.8303C27.3583 12.8236 27.4127 12.9188 27.533 12.7858C27.5744 12.7399 27.6067 12.564 27.7731 12.4854C27.878 12.2715 28.7126 11.3551 28.6759 11.2233C28.6728 11.2179 28.5401 11.3358 28.574 11.2151C28.6189 11.0547 28.6955 11.2847 28.8168 11.1484C28.8351 11.1278 29.1183 10.7086 29.1182 10.688C29.1194 10.4989 28.8216 10.8282 28.8148 10.8156C28.7978 10.784 28.9992 10.4765 29.0142 10.4691C29.0291 10.4623 28.9704 10.7906 29.1384 10.4678C29.0998 10.4905 29.0613 10.5133 29.0227 10.5361C29.0953 10.3796 29.1868 10.4268 29.2161 10.3975C29.3074 10.3065 29.2644 10.1039 29.5391 10.0524C29.6119 10.0389 29.6042 10.1444 29.6144 10.1435C29.7077 10.1316 29.6097 9.95695 29.777 9.95895C29.7896 9.95904 29.7209 10.1902 29.9559 9.8707C29.9292 9.88497 29.9025 9.89924 29.8759 9.91351C29.8855 9.8512 30.1093 9.51737 30.1468 9.47791C30.2565 9.36266 30.2505 9.52901 30.3354 9.39457C30.1717 9.40055 30.4438 9.00195 30.5164 9.08973C30.4444 8.95328 30.7733 8.68647 30.89 8.53321C30.9635 8.43644 31.0615 8.20082 31.09 8.1739C31.1249 8.14113 31.1927 8.2087 31.26 8.15273C31.2792 8.13677 31.373 7.89192 31.5833 7.77109C31.624 7.74761 31.8069 7.76988 31.7919 7.85807C31.7662 8.00901 31.5087 8.14103 31.5871 8.19455C31.6712 8.25152 31.829 7.93479 31.8953 7.86701C32.2012 7.55412 32.14 7.81963 32.173 7.83002C32.254 7.85373 32.3922 7.66149 32.4038 7.65775C32.4536 7.64353 32.4049 7.81592 32.4424 7.84664C32.4915 7.88645 32.7183 7.76996 32.7047 7.82435C32.6851 7.90207 32.4845 8.0149 32.4803 8.0283C32.4271 8.20401 32.685 8.0991 32.7814 8.0888C32.8109 8.08587 32.7933 8.17094 32.8082 8.16152C33.0358 8.0174 32.6745 7.99765 32.7896 7.87516C32.8923 7.76586 32.856 7.97692 32.8636 7.97546C32.8727 7.97298 32.9823 7.83263 33.0261 7.83023C33.0479 7.82921 32.9241 8.31233 33.0028 8.34621C33.0754 8.21635 33.148 8.0865 33.2205 7.95665C33.3151 8.0118 33.1248 8.13543 33.1209 8.15978C33.1128 8.20875 33.2302 8.14203 33.2549 8.16668C33.2708 8.18193 33.2481 8.3448 33.3515 8.25853C33.387 8.22892 33.3813 8.10774 33.5411 8.02207C33.2842 8.53991 33.5672 8.25817 33.6082 8.26749C33.649 8.27708 33.5612 8.54989 33.7436 8.27448C33.9229 8.38843 33.7934 8.31988 33.7679 8.41749C33.7368 8.53715 33.9502 8.36455 33.659 8.67149C33.7531 8.71099 33.9472 8.43493 33.9642 8.42522C33.9791 8.41704 33.974 8.50638 34.0032 8.49461C34.345 8.35323 34.1458 8.47647 34.2987 8.47513C34.3123 8.47504 34.5259 8.26099 34.4055 8.45497C34.1861 8.80831 33.9702 8.86472 34.1712 9.09885C34.458 8.929 34.5217 8.51464 34.5742 8.43756C34.6549 8.31975 34.6168 8.47518 34.6411 8.47118C34.6491 8.46955 34.7179 8.36745 34.7228 8.369C34.9595 8.43408 34.4017 8.81243 34.3154 8.99718C34.3748 8.97432 34.4342 8.95145 34.4936 8.92859C34.4517 8.988 34.4098 9.04741 34.3678 9.10683C34.6285 8.86852 34.3961 9.11246 34.4946 9.29198C34.5167 9.33231 34.5938 9.10655 34.5335 9.38441C34.6684 9.24594 34.6628 9.31762 34.7233 9.14691C34.7806 9.19457 34.6173 9.55864 34.557 9.70525C34.9462 9.3167 34.5427 9.40491 34.9373 9.11172C34.9147 8.98694 34.7963 9.17832 34.7949 9.15457C34.7897 9.06931 34.9507 8.99675 34.9062 8.73374C34.8988 8.69076 34.745 8.73649 34.8608 8.58676C34.8738 8.57029 35.0118 8.52211 35.0157 8.52701C35.0584 8.57826 34.9682 8.66004 34.9871 8.68002C35.005 8.69891 35.0714 8.58252 35.0774 8.58635C35.1452 8.63112 35.0366 8.69423 35.067 8.6958C35.133 8.69942 35.5573 8.41698 35.146 8.89029C35.3794 8.41765 35.1131 8.78366 35.0219 8.96743C34.9985 9.0142 35.0298 9.05343 34.9999 9.12259C34.9615 9.21163 34.8773 9.28697 34.8555 9.33163C34.8323 9.37981 35.1015 9.20692 34.8181 9.53488C35.0402 9.42517 35.1722 9.04017 35.3647 8.91348C35.7531 8.65805 35.3431 9.27471 35.3101 9.34609C35.3014 9.36515 35.3949 9.34846 35.39 9.36187C35.3818 9.38354 35.1088 9.70393 35.128 9.76938C35.1472 9.8347 35.217 9.64398 35.2702 9.66697C35.306 9.68239 35.0605 10.1304 35.2438 9.92489C35.37 9.78316 35.4531 9.41201 35.6202 9.46198C35.4666 9.69397 35.313 9.92596 35.1595 10.1579C35.2999 10.0724 35.4403 9.9868 35.5807 9.90123C35.412 10.1643 35.1955 10.3398 35.0922 10.6315C35.675 10.1764 35.0841 10.9124 35.0976 10.9352C35.1073 10.9466 35.4042 10.817 35.4548 10.7983C35.3582 11.0354 34.9362 11.6614 35.3592 11.4246C35.2753 11.4623 35.2506 11.6849 35.2589 11.6878C35.3449 11.7205 35.5491 11.3454 35.5728 11.4485C35.6003 11.5679 35.4324 11.5836 35.3676 11.6887C35.0361 12.2285 35.5117 12.363 35.0778 12.8298C35.0986 12.8294 35.1193 12.829 35.14 12.8286C34.7115 13.3676 34.283 13.9066 33.8544 14.4456C33.8089 14.7462 33.4541 15.3745 33.2331 15.6489C33.1887 15.7042 32.923 15.9406 32.8969 15.9541C32.8481 15.9785 32.9987 15.7574 32.8895 15.8271C32.8667 15.842 32.4928 16.2982 32.5815 16.3111C32.6279 16.2633 32.7182 16.0733 32.7532 16.0571C33.001 15.9445 31.8403 17.3449 31.8302 17.4491C31.8747 17.4319 31.9192 17.4147 31.9638 17.3975C31.8857 17.4824 31.8077 17.5672 31.7297 17.6521ZM29.7289 9.64871C29.7057 9.54631 29.8557 9.4427 29.8981 9.34745C29.9563 9.21559 29.8516 8.84195 30.0375 9.10625C29.9346 9.28707 29.8318 9.46789 29.7289 9.64871ZM27.8457 12.0122C27.9621 11.9258 28.0363 12.1137 27.9117 12.1631C27.8978 12.1685 27.6885 12.1293 27.8457 12.0122ZM28.7711 10.8897C28.7695 10.8958 28.6949 10.9896 28.6903 10.9914C28.5714 11.0372 28.7964 10.7546 28.7711 10.8897ZM24.6874 16.5963C24.7718 16.4689 24.5811 16.4659 24.5764 16.5803C24.5762 16.5875 24.6817 16.6046 24.6874 16.5963ZM24.755 16.5112C24.9374 16.4981 24.8514 16.1386 24.7619 16.3084C24.7533 16.325 24.7463 16.5116 24.755 16.5112ZM28.1929 11.6545C28.2267 11.6987 28.1213 11.7986 28.0749 11.8402C28.0366 11.81 28.1623 11.7063 28.1929 11.6545ZM26.0594 14.5834C26.0896 14.6131 26.3819 14.2115 26.3573 14.1515C26.3298 14.2285 26.0324 14.5565 26.0594 14.5834ZM25.3526 15.6449C25.3659 15.6391 25.4586 15.4942 25.4259 15.4764C25.3371 15.5151 25.2926 15.6712 25.3526 15.6449ZM23.8515 17.6839C23.8535 17.697 24.1194 17.7329 23.8141 17.8865C23.7694 17.9091 23.8143 17.7439 23.7981 17.7517C23.7651 17.7688 23.7434 17.7854 23.7297 17.8016C23.798 17.6758 23.8778 17.5516 23.8978 17.5486C23.9918 17.5346 23.8508 17.6783 23.8515 17.6839ZM23.2059 18.8591C23.2195 18.9054 23.0925 19.0436 23.0546 19.0685C23.0479 19.0726 22.9853 18.9872 22.9417 19.0594C22.9068 19.1174 23.0498 19.0975 22.9586 19.1936C22.8666 19.2908 22.9123 19.1041 22.9012 19.1104C22.8864 19.1188 22.8022 19.3119 22.7575 19.2711C22.7244 19.2409 22.879 19.0814 22.9036 19.0319C22.935 18.9685 22.8252 18.9927 22.907 18.9082C22.9584 18.8552 23.0395 18.9651 23.054 18.9566C23.0659 18.9493 23.1569 18.6987 23.2053 18.8592C23.2055 18.8592 23.2057 18.8591 23.2059 18.8591ZM23.7117 17.836C23.7144 17.8248 23.72 17.8133 23.7297 17.8016C23.7236 17.8131 23.7176 17.8246 23.7117 17.836ZM29.538 10.0052C29.463 10.0394 29.5479 9.83659 29.6384 9.80257C29.6735 9.82663 29.5499 9.99969 29.538 10.0052ZM23.7195 18.0049C23.5684 18.1553 23.6239 18.0038 23.7117 17.836C23.6963 17.8984 23.7702 17.9544 23.7195 18.0049ZM27.2172 13.1523C27.2041 13.1537 27.1885 13.1493 27.168 13.1351C27.2038 13.1324 27.2168 13.1394 27.2172 13.1523ZM26.8903 13.5221C26.8518 13.7028 27.052 13.4251 27.0069 13.3947C26.9898 13.3834 26.8919 13.5148 26.8903 13.5221ZM24.5655 16.7497C24.5806 16.7417 24.6237 17.0705 24.6908 16.6884C24.5592 16.8219 24.6549 16.6494 24.637 16.6398C24.586 16.6117 24.4462 16.8957 24.3852 16.9366C24.4365 17.0413 24.5156 16.7762 24.5652 16.75C24.5653 16.7499 24.5654 16.7498 24.5655 16.7497ZM21.7426 20.7568C21.7188 20.687 21.8138 20.5905 21.8702 20.5198C21.894 20.5897 21.799 20.6861 21.7426 20.7568ZM10.7151 14.0229C11.137 14.48 10.9904 14.6938 10.7223 14.1851C10.7171 14.175 10.6723 14.0083 10.7151 14.0229ZM13.9044 18.2769C13.8548 18.3886 13.7234 18.246 13.6812 18.1184C13.6717 18.0895 13.6932 17.9391 13.784 18.0222C13.6784 18.0985 13.7532 18.2774 13.9044 18.2769ZM23.7044 18.1416C23.7258 18.2335 23.5729 18.3554 23.5054 18.4292C23.4938 18.3454 23.6343 18.1992 23.7044 18.1416ZM11.8537 15.7152C11.887 15.7719 11.988 15.7499 11.9873 15.7362C11.9848 15.6744 11.8505 15.6237 11.8537 15.7152ZM24.0743 17.6569C24.1139 17.6753 23.999 17.9013 23.9034 17.8526C23.9412 17.8141 24.049 17.646 24.0743 17.6569ZM21.8694 20.6385C21.91 20.6201 21.8223 20.8052 21.7689 20.8414C21.7351 20.8105 21.843 20.6506 21.8694 20.6385ZM12.5195 16.5293C12.5487 16.5806 12.6357 16.6979 12.6756 16.6877C12.7253 16.6748 12.582 16.5148 12.5195 16.5293ZM5.82472 7.95355C5.83368 7.93735 6.06855 8.04216 6.10529 8.14076C6.17471 8.32827 5.82009 7.96719 5.82472 7.95355ZM11.4388 15.2545C11.3969 15.0541 11.4534 15.2689 11.5227 15.2055C11.4498 15.105 11.2653 14.8575 11.3217 15.0818C11.3328 15.1255 11.4084 15.2049 11.4388 15.2545ZM11.5176 15.4084C11.5537 15.4056 11.7105 15.4527 11.6351 15.3658C11.6001 15.3257 11.4637 15.3226 11.5176 15.4084ZM6.71194 9.03949C6.74695 9.22102 6.3205 8.59327 6.31873 8.56716C6.31779 8.55336 6.31893 8.54299 6.32117 8.53585C6.28339 8.5298 6.19242 8.41923 6.23499 8.3656C6.2568 8.40297 6.33282 8.49228 6.33527 8.50755C6.33636 8.51411 6.33669 8.51937 6.33616 8.52358C6.41265 8.52847 6.70509 9.0048 6.71194 9.03949ZM7.40935 10.0867C7.19718 10.0113 7.34156 9.85809 7.3568 9.86693C7.54971 9.97832 7.34636 9.96528 7.34451 9.97467C7.34381 9.99335 7.48932 10.0659 7.40899 10.0863C7.40911 10.0864 7.40923 10.0866 7.40935 10.0867ZM6.84164 9.26434C6.83475 9.25983 6.7431 9.13004 6.74172 9.12286C6.7178 8.97712 6.97741 9.34421 6.84164 9.26434ZM22.7299 19.7527C22.6459 19.832 22.6503 19.6969 22.7172 19.6523C22.723 19.6489 22.8039 19.6827 22.7299 19.7527ZM11.5893 15.4679C11.5939 15.4976 11.9616 16.0653 12.0284 15.9628C11.9827 15.9257 11.5629 15.2819 11.5893 15.4679ZM14.6375 19.4793C14.5657 19.3845 14.7311 19.4209 14.7375 19.4959C14.7399 19.5238 14.6556 19.5032 14.6375 19.4793ZM24.3536 17.4437C24.3785 17.3088 24.5252 17.4483 24.4064 17.4937C24.4017 17.4955 24.3527 17.449 24.3536 17.4437ZM14.1083 18.6882C14.4105 18.973 14.0775 19.1065 13.8451 18.6128C13.8675 18.6167 13.8898 18.6205 13.9122 18.6244C13.5783 18.105 13.9058 18.5762 14.013 18.6838C14.0537 18.7248 14.0702 18.6516 14.1084 18.6876C14.1084 18.6878 14.1083 18.688 14.1083 18.6882ZM15.0132 19.979C15.0595 20.4414 14.7267 19.7465 14.5696 19.5946C14.7776 19.6991 14.9318 19.9248 14.7877 19.5674C15.1343 19.9854 14.9193 19.8658 14.926 19.8879C14.9344 19.9138 15.0113 19.9593 15.0132 19.979ZM14.3772 19.1543C14.3576 19.1405 14.2924 18.9738 14.2482 18.9296C14.3674 18.9473 14.5081 19.2448 14.3772 19.1543ZM8.25646 11.0955C8.19574 11.1241 8.13591 11.1256 8.07263 11.003C8.12432 11.0162 8.19963 11.0676 8.25646 11.0955ZM30.0844 9.74793C30.1436 9.6754 30.2737 9.54005 30.1843 9.5452C30.1759 9.54676 30.0534 9.72478 30.0844 9.74793ZM12.7404 17.0527C12.7462 17.0733 13.0552 17.4842 13.0044 17.2993C12.989 17.2436 12.6966 16.8784 12.7404 17.0527ZM11.1246 14.937C11.1503 14.9715 11.2666 15.1026 11.2812 15.096C11.3309 15.0727 11.1768 14.9206 11.1246 14.937ZM30.4177 9.40771C30.4305 9.40182 30.5898 9.16462 30.5456 9.17106C30.4618 9.18343 30.3738 9.42783 30.4177 9.40771ZM22.6088 20.1769C22.5967 20.1976 22.5205 20.1809 22.515 20.187C22.5027 20.2021 22.2662 20.5704 22.2912 20.3817C22.2954 20.3502 22.6958 19.8645 22.7515 19.8039C22.8491 19.8364 22.6151 19.9976 22.5845 20.0562C22.5793 20.0667 22.6408 20.1211 22.6086 20.1765C22.6087 20.1767 22.6088 20.1768 22.6088 20.1769ZM7.77067 10.5771C7.70962 10.5997 7.36397 10.2176 7.42736 10.1764C7.54179 10.31 7.65623 10.4435 7.77067 10.5771ZM7.92149 10.7902C7.95339 10.9039 7.78545 10.7093 7.75474 10.6375C7.78742 10.6113 7.91686 10.7736 7.92149 10.7902ZM11.534 15.8509C11.5775 15.8825 11.5527 15.7014 11.5884 15.7188C11.6109 15.7301 11.6542 15.8423 11.6992 15.8541C11.7127 15.8569 11.7086 15.7117 11.685 15.6869C11.6516 15.6516 11.6269 15.7297 11.5944 15.6882C11.4866 15.5502 11.43 15.398 11.329 15.2685C11.3198 15.2569 11.3523 15.3769 11.2758 15.2763C11.2639 15.2608 11.2483 15.1247 11.1478 15.0112C10.7709 14.8796 10.7917 14.5543 10.4708 14.2663C10.4643 14.2915 10.6136 14.5765 10.6234 14.5926C10.8108 14.8954 11.1945 15.401 11.4203 15.6955C11.4782 15.7712 11.4867 15.7063 11.513 15.7378C11.5338 15.7627 11.4424 15.7844 11.534 15.8509ZM30.0932 9.81599C30.1886 9.83078 30.2374 9.67276 30.3001 9.59495C30.2171 9.57754 30.1662 9.74862 30.0932 9.81599ZM9.27408 12.6587C9.3072 12.6963 9.38128 12.835 9.40952 12.8295C9.44627 12.8221 9.32666 12.6316 9.27408 12.6587ZM21.1309 22.1476C21.1299 22.1528 21.0549 22.2471 21.0501 22.2492C20.931 22.2952 21.1561 22.0126 21.1309 22.1476ZM19.4129 24.458C19.3674 24.5378 19.3344 24.6279 19.2603 24.6115C19.3033 24.5709 19.3803 24.4208 19.4129 24.458ZM18.4343 24.6976C18.434 24.7898 18.2755 24.7099 18.2558 24.6973C18.2685 24.6593 18.4303 24.632 18.4343 24.6976ZM8.04214 11.2852C7.94406 11.1487 7.85643 11.2608 7.84089 11.1383C7.83863 11.1181 8.03182 10.8986 8.05909 11.1105C8.06402 11.1486 7.93076 11.0871 8.04214 11.2852ZM13.7945 18.5422C13.7208 18.545 13.6536 18.4283 13.6024 18.3538C13.6502 18.3426 13.752 18.4939 13.7945 18.5422ZM30.7785 9.03293C30.8935 9.01975 31.0582 8.68915 30.9597 8.72849C30.9462 8.73448 30.8113 8.99368 30.7785 9.03293ZM23.6727 18.6482C23.638 18.8084 23.8383 18.5708 23.8436 18.4532C23.8208 18.4914 23.6752 18.6374 23.6727 18.6482ZM19.0725 24.7796C19.0679 24.7827 18.959 24.7758 18.9541 24.7721C18.8668 24.7019 19.171 24.7208 19.0725 24.7796ZM20.0625 23.7604C20.073 23.8391 19.8145 24.1159 19.7202 24.1512C19.7033 24.0382 20.0491 23.6625 20.0625 23.7604ZM8.49432 11.8092C8.41904 11.716 8.3632 11.6155 8.315 11.5137C8.36586 11.5038 8.51405 11.7781 8.49432 11.8092ZM18.6716 24.7738C18.6659 24.7731 18.6606 24.7675 18.6552 24.7666C18.6608 24.7689 18.6662 24.7715 18.6716 24.7738ZM10.1028 13.9552C10.1495 14.046 10.2041 13.9777 10.2024 13.9712C10.1782 13.8946 10.0499 13.8525 10.1028 13.9552ZM30.2627 9.79819C30.3451 9.81552 30.3972 9.64423 30.4694 9.57674C30.4039 9.56362 30.3026 9.73037 30.2627 9.79819ZM15.1465 20.4099C15.1575 20.5606 14.7682 20.2125 14.7447 20.0941C14.7805 20.0565 15.1442 20.3884 15.1465 20.4099ZM24.0407 18.3415C24.095 18.3689 24.1642 18.1524 24.1142 18.1725C24.0825 18.1851 24.007 18.3243 24.0407 18.3415ZM14.6152 19.8681C14.5713 19.8411 14.5497 19.7159 14.6025 19.7252C14.6702 19.7373 14.6269 19.8748 14.6152 19.8681ZM11.9403 16.4673C11.9459 16.4896 12.1675 16.6769 12.1447 16.5467C12.1289 16.4563 12.0522 16.4989 12.0404 16.4839C12.0276 16.4668 11.8344 16.0412 11.9403 16.4673ZM16.8568 22.7209C16.7733 22.6501 16.7158 22.5313 16.6462 22.4435C16.7035 22.457 16.8682 22.6547 16.8568 22.7209ZM23.5616 19.0208C23.5965 19.0142 24.0273 18.4525 23.729 18.7323C23.7118 18.7486 23.4556 19.0408 23.5616 19.0208ZM8.04214 11.2852C8.05451 11.3024 8.06713 11.3235 8.07971 11.3496C8.0644 11.3258 8.0527 11.304 8.04214 11.2852ZM9.19739 12.803C9.13916 12.7989 9.24861 12.9605 9.30208 12.9919C9.35522 12.9734 9.20547 12.8035 9.19739 12.803ZM16.5927 22.4739C16.5335 22.438 16.4833 22.3289 16.4324 22.2674C16.4728 22.2533 16.6084 22.4266 16.5927 22.4739ZM18.126 24.8639C18.0723 24.828 18.0511 24.8323 18.0395 24.8809C18.0416 24.8734 18.0436 24.8654 18.0459 24.8574C18.0446 24.8487 18.0494 24.8727 18.1081 24.8796C18.2011 24.8951 18.1491 24.851 18.0974 24.8214C18.0465 24.7929 18.0575 24.8005 18.1024 24.8183C18.2049 24.8552 18.2818 24.9174 18.0535 24.9413C18.0755 24.9154 18.0999 24.8896 18.126 24.8639ZM20.4581 23.4196C20.5499 23.3968 20.6093 23.1878 20.5589 23.2163C20.5239 23.2363 20.3659 23.4422 20.4581 23.4196ZM19.4296 25.0844C19.4215 25.1034 19.1226 25.2445 18.8382 25.6316L18.9101 25.528C18.9172 25.5026 18.9194 25.4827 18.9129 25.4761C18.9018 25.4845 18.8908 25.4947 18.8802 25.506L18.8071 25.6112C19.0397 25.2509 19.2715 25.1075 19.3659 25.0572C19.4647 25.0089 19.5016 25.0137 19.4296 25.0844ZM20.8461 23.0111C20.8805 22.9797 20.8363 22.875 20.8297 22.8768C20.7736 22.8931 20.7569 23.0407 20.8461 23.0111ZM8.04576 11.7212C8.06498 11.7921 8.2529 11.9206 8.3327 11.9187C8.32817 11.9333 8.32969 11.9619 8.34065 12.0082C8.34056 12.008 8.34049 12.0079 8.34041 12.0078C8.35543 12.0701 9.39903 13.4744 8.78228 12.4685C8.76304 12.4369 8.74778 12.5119 8.66473 12.3872C8.6593 12.3789 8.69374 12.3462 8.67698 12.3206C8.63814 12.2619 8.43379 11.9473 8.35785 11.9109C8.3644 11.905 8.36804 11.8961 8.3678 11.8833C8.36562 11.7687 8.03073 11.6663 8.04576 11.7212ZM19.7331 24.9442C19.7434 24.9591 19.7041 24.9541 19.6732 24.9216C19.72 24.8826 19.7234 24.905 19.7331 24.9442ZM23.7123 19.1043C23.7882 19.0589 23.8589 18.8545 23.7945 18.8846C23.7549 18.9031 23.625 19.1568 23.7123 19.1043ZM19.3372 24.9828C19.0207 25.3303 19.2743 25.0751 19.2812 25.1689C19.2999 25.1069 19.3185 25.0448 19.3372 24.9828ZM6.85246 9.90985C6.88673 9.97751 6.73775 9.98155 6.73961 9.87661C6.74039 9.84352 6.83311 9.87213 6.85246 9.90985ZM4.77161 7.26428C4.72561 7.37988 4.58607 7.09527 4.71802 7.14657C4.72341 7.14952 4.77206 7.25819 4.77161 7.26428ZM6.17026 9.15551C6.25881 9.15125 6.28574 9.17211 6.35833 9.29608C6.21349 9.1413 6.28169 9.33568 6.17026 9.15551ZM18.0374 24.8884C18.0381 24.8856 18.0387 24.8835 18.0395 24.8809C18.0388 24.8835 18.0381 24.8859 18.0374 24.8884ZM21.091 22.6457C21.1754 22.6351 21.2688 22.5002 21.1899 22.5029C21.1824 22.5033 21.0685 22.5994 21.091 22.6457ZM8.3327 11.9187C8.33672 11.9058 8.3448 11.9046 8.35785 11.9109C8.35168 11.9164 8.34348 11.9185 8.3327 11.9187ZM20.6102 23.3851C20.5766 23.3531 20.4144 23.5437 20.4128 23.5549C20.3923 23.7176 20.5514 23.4698 20.6102 23.3851ZM24.7416 17.8127C24.7453 17.7995 24.6004 17.796 24.6078 17.8646C24.6136 17.9177 24.7278 17.8623 24.7416 17.8127ZM5.85179 8.78988C5.80369 8.72717 5.73583 8.63898 5.76805 8.58832C5.79346 8.63559 5.88561 8.76595 5.85179 8.78988ZM4.78433 7.40792C4.89385 7.44157 5.02374 7.61085 5.0981 7.72553C5.03041 7.78073 4.85403 7.46492 4.78433 7.40792ZM7.9409 11.5314C7.94204 11.5387 8.04217 11.7117 8.07201 11.6546C8.11586 11.571 7.93203 11.4677 7.9409 11.5314ZM24.4629 18.0855C24.4429 18.1808 24.6633 18.0896 24.6417 17.9577C24.6307 17.89 24.4663 18.0695 24.4629 18.0855ZM21.4593 22.2809C21.5013 22.1666 21.2811 22.3645 21.3064 22.4333C21.3422 22.3928 21.4443 22.3215 21.4593 22.2809ZM19.1529 25.5245C19.5131 25.3318 19.1352 25.3033 19.1192 25.3727C19.117 25.3825 19.1442 25.5293 19.1529 25.5245ZM31.6038 8.50449C31.615 8.44794 31.4283 8.55218 31.4605 8.60704C31.4807 8.64122 31.5966 8.54062 31.6038 8.50449ZM17.9748 24.5011C17.9847 24.5131 17.9946 24.525 18.0043 24.5368C17.995 24.5295 17.9851 24.5181 17.9748 24.5011ZM22.2781 21.5651C21.924 21.6268 22.0947 21.7184 22.0805 21.736C22.0495 21.7736 21.9282 21.825 21.8828 21.9056C21.9225 21.8042 21.9621 21.7029 22.0018 21.6016C21.9382 21.6579 21.4371 22.1852 21.4607 22.2213C21.4941 22.2727 21.614 22.0791 21.6221 22.0767C21.6335 22.0733 21.7832 22.1393 21.8006 22.126C21.829 22.1038 22.1889 21.6195 22.2781 21.5651ZM19.587 24.887C19.5366 24.9235 19.4756 24.8997 19.4715 24.9308C19.4701 24.9414 19.5179 24.9784 19.5115 25.0134C19.5367 24.9713 19.5618 24.9292 19.587 24.887ZM22.3729 21.0582C22.4759 21.0427 22.2583 21.2915 22.2454 21.2951C22.1718 21.3109 22.2888 21.0709 22.3729 21.0582ZM20.7271 23.3164C20.7377 23.3092 20.906 23.1191 20.8718 23.0965C20.8071 23.1319 20.5995 23.399 20.7271 23.3164ZM19.4914 25.0478C19.4331 25.1152 19.2847 25.2145 19.3694 25.2528C19.3694 25.2527 19.3695 25.2526 19.3696 25.2525C19.4102 25.1843 19.4508 25.116 19.4914 25.0478ZM24.438 18.4437C24.6521 18.3967 24.4585 18.3513 24.3346 18.4411C24.3608 18.5152 24.403 18.4515 24.438 18.4437ZM24.8369 18.083C24.885 18.0615 25.1415 17.6642 25.0371 17.6769C25 17.6814 24.8948 17.9409 24.8831 17.9478C24.8655 17.9584 24.8485 17.8385 24.7763 17.9651C24.8045 17.9753 24.8206 18.0905 24.8369 18.083ZM24.5934 18.3888C24.779 18.3221 24.6371 18.1722 24.5638 18.2711C24.535 18.3096 24.5667 18.3982 24.5934 18.3888ZM24.1837 18.9171C24.2341 18.881 24.3496 18.7713 24.3592 18.6442C24.2689 18.7574 24.1786 18.8705 24.0883 18.9837C24.1093 19.0198 24.1396 18.9486 24.184 18.9168C24.1839 18.9169 24.1838 18.917 24.1837 18.9171ZM3.77259 6.94555C3.80616 7.08372 3.60615 6.85972 3.60964 6.84105C3.62396 6.78261 3.75757 6.8838 3.77259 6.94555ZM33.6918 8.77854C33.7317 8.76303 33.8066 8.78872 33.8217 8.70122C33.7295 8.73265 33.6372 8.76408 33.5449 8.79552C33.6111 8.92124 33.648 8.79537 33.6918 8.77854ZM34.2488 8.80883C34.2446 8.81977 34.4395 8.88635 34.2474 8.92631C34.1176 8.95334 34.3655 8.47011 34.4931 8.44368C34.4624 8.55384 34.2861 8.71553 34.2488 8.80883ZM35.4902 8.55539C35.5065 8.55968 35.4044 8.73746 35.3816 8.74993C35.2613 8.81524 35.4028 8.53265 35.4902 8.55539ZM35.0752 9.05694C35.1625 9.00253 35.057 9.18766 35.002 9.22549C34.9689 9.20877 35.062 9.06554 35.0752 9.05694ZM2.31901 9.72328C2.27615 9.88661 2.56039 9.78477 2.41754 9.69394C2.41075 9.68958 2.32151 9.7158 2.31901 9.72328ZM35.532 8.83323C35.4447 8.88763 35.5502 8.7025 35.6052 8.66467C35.6381 8.68157 35.5451 8.82481 35.532 8.83323ZM2.11119 9.97482C2.11869 10.1422 2.34488 9.90739 2.34473 9.88586C2.34234 9.79855 2.0943 9.68354 2.03918 9.66346C2.29861 9.92156 2.10769 9.89597 2.11119 9.97482ZM2.65067 10.3589C2.75557 10.4389 2.60934 10.1407 2.50021 10.1463C2.5422 10.1938 2.6207 10.3362 2.65067 10.3589ZM3.03984 11.0349C3.07243 11.0962 3.17465 11.2746 3.2357 11.2708C3.18285 11.2171 3.09885 11.026 3.03984 11.0349ZM3.01381 11.2505C3.02439 11.3774 3.1993 11.2753 3.07664 11.2139C3.07188 11.2115 3.01445 11.245 3.01381 11.2505ZM3.3231 11.7719C3.30257 11.8762 3.50566 11.8212 3.44046 11.7278C3.4208 11.7003 3.32583 11.7604 3.3231 11.7719ZM1.94089 10.3225C1.97499 10.4231 2.1644 10.441 2.04568 10.2614C2.10851 10.3082 2.17136 10.3551 2.2342 10.4019C2.1247 10.1313 1.98411 10.2654 1.94123 10.1965C1.88145 10.1001 2.01328 10.01 2.06677 9.99749C1.93295 9.98366 1.69214 9.67295 1.53894 9.50416C1.62813 9.68745 1.76925 9.98764 1.86874 10.1597C1.89707 10.2089 1.965 10.2255 1.99036 10.2665C2.03082 10.3324 1.93929 10.3166 1.94065 10.3222C1.94073 10.3223 1.94081 10.3224 1.94089 10.3225ZM3.80295 12.4008C3.85701 12.6197 3.93235 12.3971 3.83365 12.3259C3.82848 12.3235 3.80158 12.3954 3.80295 12.4008ZM36.1725 8.96415C35.9434 9.13806 35.9749 8.91242 35.7657 9.47469C35.8155 9.21046 35.7062 9.41434 35.6964 9.34842C35.689 9.29585 35.798 9.19945 35.6888 9.22179C35.8187 9.18242 36.0799 8.7889 36.103 8.77978C36.1029 8.77994 36.1027 8.7801 36.1026 8.78026C36.1164 8.77472 36.2456 8.9086 36.1725 8.96415ZM2.6354 11.347C2.48941 11.5461 2.80418 11.3382 2.7309 11.5652C3.06693 11.5343 2.42755 11.1705 2.56858 10.9586C2.99513 11.5595 2.46142 10.4274 2.48865 11.0547C2.33441 10.6392 2.36867 10.9719 2.29239 10.9481C2.21096 10.9225 2.10719 10.7002 2.04459 10.7637C2.04467 10.7638 2.04475 10.7639 2.04483 10.764C2.13901 10.8764 2.23318 10.9887 2.32736 11.1011C2.39099 10.8713 2.52814 11.1435 2.46698 11.3186C2.52312 11.3281 2.57926 11.3376 2.6354 11.347ZM2.27188 10.5807C2.27722 10.5948 2.49258 10.8312 2.51035 10.7916C2.50375 10.743 2.20498 10.4023 2.27188 10.5807ZM1.38431 9.49431C1.45366 9.58529 1.53201 9.74819 1.62693 9.75384C1.55758 9.66282 1.47924 9.49989 1.38431 9.49431ZM4.96363 14.1731C5.09923 14.2528 4.83946 13.8862 4.86327 14.0318C4.86456 14.0388 4.95708 14.1691 4.96363 14.1731ZM2.86595 11.5882C2.89887 11.7499 3.03899 11.5538 2.92441 11.5033C2.91773 11.5004 2.8644 11.5807 2.86595 11.5882ZM36.0628 9.16084C36.1024 9.20229 35.8335 9.50127 35.7919 9.55872C35.7735 9.49515 36.0173 9.11333 36.0628 9.16084ZM1.09403 9.46348C1.0717 9.76777 1.44598 9.86967 1.46255 9.89965C1.47894 9.92954 1.37634 9.94177 1.37913 9.94931C1.38585 9.96623 1.61037 10.2461 1.62585 10.2561C1.63725 10.263 1.69663 10.1355 1.77292 10.1702C1.62868 10.0989 1.26419 9.55196 1.23249 9.53342C1.20767 9.51924 1.22488 9.75667 1.09427 9.4638C1.09419 9.46369 1.09411 9.46359 1.09403 9.46348ZM1.49258 9.98333C1.47945 9.88041 1.63779 10.0757 1.65955 10.1356C1.70765 10.2691 1.49468 9.99623 1.49258 9.98333ZM1.82272 10.4919C1.83091 10.5218 1.9803 10.7337 2.03989 10.7156C2.02507 10.5724 1.80472 10.4236 1.82272 10.4919ZM3.58535 12.7722C3.63226 12.821 3.70951 12.9949 3.75632 12.9723C3.7094 12.9234 3.63213 12.7495 3.58535 12.7722ZM35.6123 10.5241C35.7128 10.4592 35.5735 10.6782 35.5124 10.727C35.4826 10.7102 35.6038 10.5296 35.6123 10.5241ZM2.49548 11.9046C2.50748 11.9456 3.0333 12.5663 3.12165 12.6422C3.08421 12.5303 2.5958 11.89 2.55864 11.8725C2.54768 11.8675 2.49432 11.8991 2.49548 11.9046ZM1.40592 10.5257C1.3011 10.5123 1.34274 10.419 1.3379 10.4108C1.29085 10.3308 1.16101 10.1896 1.24377 10.1788C1.31976 10.3255 1.61429 10.5526 1.40592 10.5257ZM3.35171 13.0246C3.54191 13.2264 3.28152 12.7581 3.26179 12.861C3.26077 12.8674 3.33201 13.0038 3.35171 13.0246ZM2.42284 11.8459C2.33775 11.8346 1.88381 11.1583 1.80436 11.0548C1.96414 11.0795 1.95428 11.2058 2.05448 11.3268C2.08162 11.3594 2.11156 11.3221 2.1144 11.3257C2.16081 11.3825 2.0848 11.3717 2.11172 11.4081C2.12884 11.4309 2.54268 11.8618 2.42284 11.8459ZM1.33884 10.5236C1.27709 10.5137 0.953289 10.1225 0.949894 10.0994C0.924126 9.92655 1.32667 10.4832 1.33884 10.5236ZM2.38956 11.9656C2.23339 11.9754 2.05631 11.6024 2.27597 11.782C2.29672 11.7993 2.3202 11.9222 2.38956 11.9656ZM3.23575 13.0766C3.241 13.0897 3.39572 13.3335 3.43161 13.3124C3.419 13.2697 3.17489 12.9285 3.23575 13.0766ZM3.03414 13.0434C3.03915 13.0483 3.06111 12.9464 3.13531 13.0595C3.14141 13.069 3.08324 13.1401 3.21253 13.2546C3.23884 13.2777 3.31827 13.2839 3.31884 13.2786C3.32259 13.0531 2.78531 12.7955 3.03414 13.0434ZM1.27569 10.5604C1.26241 10.6051 1.13332 10.6212 1.14208 10.5394C1.14598 10.5042 1.22832 10.5009 1.27569 10.5604ZM3.76291 13.8219C3.6071 13.7307 3.91682 14.1548 3.94692 14.1654C3.97024 14.1262 3.77836 13.8311 3.76291 13.8219ZM35.8804 11.0457C35.8805 11.0456 35.8806 11.0455 35.8807 11.0454C35.785 11.1496 35.791 11.0459 35.7856 11.0502C35.5413 11.2425 35.6916 11.2543 35.676 11.301C35.6429 11.4013 35.5269 11.296 35.4786 11.4708C35.5676 11.1886 35.4489 11.4178 35.3995 11.3913C35.1986 11.2827 35.7057 11.1535 35.7502 11.0128C35.7564 10.9933 35.6132 11.0663 35.6261 11.014C35.6685 10.8439 36.2475 10.6456 35.8804 11.0457ZM1.10628 10.509C1.01384 10.4978 0.763275 10.0661 0.88665 10.1368C0.906475 10.1482 1.2415 10.5261 1.10628 10.509ZM16.5166 29.6456C16.2518 29.6219 16.8006 29.8653 16.879 29.8299C16.9294 29.8203 16.6338 29.6597 16.5166 29.6456ZM19.2933 30.2234C19.489 30.2071 19.68 29.9562 19.4428 30.0044C19.4182 30.0098 19.2706 30.1909 19.2933 30.2234ZM10.544 23.1494C10.566 23.3187 10.6869 23.2147 10.6191 23.1301C10.5952 23.1003 10.5433 23.1441 10.544 23.1494ZM13.9936 27.6034C13.9982 27.6185 14.1103 27.7476 14.1355 27.7204C14.1145 27.657 13.9657 27.5044 13.9936 27.6034ZM10.4975 23.1261C10.5736 23.178 10.5731 22.9884 10.4187 22.9721C10.4591 23.0096 10.4897 23.1207 10.4975 23.1261ZM2.29647 12.4218C2.39296 12.4401 2.50366 12.6165 2.58514 12.7041C2.52582 12.7659 2.3605 12.4799 2.29647 12.4218ZM18.4893 30.1164C18.6694 30.0656 18.2925 29.9974 18.3221 30.0772C18.3265 30.082 18.4825 30.1189 18.4893 30.1164ZM7.61698 19.3929C7.71631 19.4392 7.58196 19.1529 7.56335 19.2744C7.56304 19.28 7.6115 19.3904 7.61698 19.3929ZM6.81825 18.3058C6.8497 18.3747 7.04566 18.621 7.01009 18.4938C7.0045 18.4741 6.85831 18.282 6.81825 18.3058ZM35.7202 11.3438C35.8139 11.3632 35.6605 11.537 35.6287 11.5546C35.6159 11.5613 35.5983 11.3185 35.7202 11.3438ZM11.1175 23.9178C11.1726 23.9717 11.277 24.1413 11.3344 24.1412C11.27 24.0729 11.1742 23.8424 11.1175 23.9178ZM17.6572 30.0427C17.8125 30.1596 18.0875 30.1754 18.031 30.046C17.7274 30.023 18.0609 30.1644 17.6572 30.0427ZM10.117 22.7981C10.1486 22.8511 10.2713 22.816 10.2715 22.8071C10.2732 22.7221 10.1165 22.7217 10.117 22.7981ZM12.9953 26.3824C12.9573 26.4161 13.0951 26.5577 13.105 26.517C13.1085 26.5035 13.0261 26.3551 12.9953 26.3824ZM3.84054 14.4779C3.85868 14.5774 3.65539 14.3872 3.6487 14.2898C3.68634 14.2111 3.83783 14.4656 3.84054 14.4779ZM9.10553 21.4335C9.04031 21.4721 9.26104 21.6895 9.2368 21.5556C9.23073 21.5221 9.12742 21.4207 9.10553 21.4335ZM7.2437 19.1594C7.44028 19.2679 6.96404 18.5439 7.01381 18.7921C7.01739 18.8098 7.22677 19.1498 7.2437 19.1594ZM6.42787 18.0061C6.44168 18.0403 6.23045 18.1804 6.21818 18.0044C6.21645 17.9814 6.32443 18.0122 6.32694 17.9904C6.32819 17.9778 6.1616 17.7028 6.14795 17.6947C6.13299 17.6862 6.0801 17.7504 6.06311 17.7432C6.04403 17.735 5.98058 17.5357 5.91841 17.4535C5.80116 17.2988 5.73491 17.3233 5.72503 17.3108C5.69641 17.2743 5.68687 17.1833 5.62953 17.1088C5.3403 16.7334 4.85327 16.1936 4.7377 15.8086C4.89591 16.1087 5.13836 16.3241 5.35596 16.5765C5.18497 16.585 5.7402 16.8984 5.40224 16.7252C5.52649 16.8291 6.38141 17.895 6.42763 18.0058C6.42772 18.0059 6.42779 18.006 6.42787 18.0061ZM20.0977 30.2428C19.9642 30.3487 20.6799 30.2361 20.7491 30.1101C20.6272 30.1266 20.1061 30.236 20.0977 30.2428ZM17.1648 30.3472C17.0928 30.3467 17.0142 30.5141 16.6177 30.3261C16.6173 30.326 16.6169 30.3259 16.6166 30.3258C16.4947 30.2671 16.6527 30.2671 16.6319 30.2463C16.6273 30.2414 16.2412 30.0399 16.5833 30.1259C17.0624 30.2283 16.6007 30.2625 16.8494 30.3244C16.8848 30.3359 17.3179 30.3256 17.2932 30.2988C17.2914 30.2963 17.1672 30.294 17.1485 30.2817C17.0787 30.2366 17.1253 30.1918 17.1151 30.1873C17.0955 30.1799 16.926 30.1695 16.7154 30.1278C16.5107 30.0895 16.242 30.0024 16.1834 29.9373C16.1661 29.9196 16.5605 30.0373 16.8445 30.0833C17.1389 30.1368 17.394 30.1631 17.411 30.1728C17.4338 30.1847 17.401 30.3276 17.4243 30.3458C17.44 30.3574 17.835 30.3535 17.8779 30.3695C17.8916 30.3748 17.902 30.3801 17.9096 30.3843C17.859 30.3347 18.1919 30.3683 18.1776 30.4172C18.1702 30.4374 17.9418 30.4058 17.9326 30.4007C17.9291 30.3989 17.9261 30.3965 17.9232 30.3948C17.9766 30.4632 17.1449 30.3459 17.3097 30.4502C17.042 30.4498 17.3671 30.3388 17.1648 30.3472ZM15.2378 29.7264C15.3253 29.7649 15.41 29.7975 15.487 29.8231C15.2726 29.7068 15.0121 29.5583 14.6607 29.2143L14.387 28.9025C14.2358 28.7109 14.1119 28.4678 13.9483 28.2557C13.8979 28.1901 13.8813 28.3229 13.8356 28.2213C13.7991 28.1399 13.8097 28.0106 13.8539 28.0361C13.8648 28.0423 13.9274 28.2171 13.9859 28.2836C14.1588 28.4802 14.1825 28.3787 14.1936 28.3895C14.2056 28.4014 14.2608 28.5663 14.3175 28.6359C14.3801 28.7126 14.4348 28.7656 14.4881 28.8248L14.7509 29.1242C15.4242 29.7453 15.8097 29.8536 16.2228 30.0567C15.9977 30.0044 15.9022 30.0053 15.8256 30.0061C15.7294 29.9904 15.6873 30.0238 15.2378 29.7264ZM8.1347 20.5451C8.08789 20.5675 8.01083 20.3933 7.96394 20.3445C8.01075 20.3219 8.08779 20.4963 8.1347 20.5451ZM31.0925 18.296C31.059 18.2008 30.7901 18.5319 30.9125 18.4825C30.9396 18.4716 31.0603 18.3388 31.0925 18.296ZM29.9185 19.8084C29.9033 19.8679 30.0875 19.7185 30.0353 19.6807C30.0184 19.6687 29.9204 19.8007 29.9185 19.8084ZM12.2598 26.0589C12.2511 26.052 12.1703 25.9164 12.1707 25.9099C12.1775 25.7736 12.4514 26.2139 12.2598 26.0589ZM28.6236 21.7441C28.6972 21.5517 28.3241 22.0196 28.4884 21.9135C28.4965 21.9082 28.62 21.7534 28.6236 21.7441ZM28.1438 22.4229C28.1696 22.3828 28.3167 22.2285 28.2978 22.2112C28.2673 22.1835 28.1014 22.3619 28.1438 22.4229ZM9.84228 22.9572C9.78183 23.0326 9.66826 22.7682 9.59981 22.6985C9.66027 22.623 9.77382 22.8876 9.84228 22.9572ZM10.86 24.3948C10.0849 23.5079 10.4019 23.5911 10.939 24.4224C10.8921 24.4603 10.9089 24.4508 10.86 24.3948ZM9.95147 23.1945C10.0252 23.1918 10.0924 23.3085 10.1436 23.3829C10.1005 23.3955 9.99969 23.2395 9.95147 23.1945ZM31.4968 17.9635C31.5144 18.0679 31.2456 18.2755 31.2547 18.2102C31.2573 18.1953 31.4792 17.9169 31.4968 17.9635ZM12.136 26.0298C12.0803 26.1072 11.8947 25.8046 11.8943 25.7708C11.8926 25.6347 12.1026 26.0194 12.136 26.0298ZM8.76176 21.6833C8.66707 21.6775 8.58834 21.5147 8.5197 21.4238C8.59978 21.4277 8.7039 21.6059 8.76176 21.6833ZM9.21827 22.3691C9.21174 22.3651 9.12008 22.2353 9.11836 22.2277C9.09444 22.0819 9.35404 22.449 9.21827 22.3691ZM36.5494 11.2952C36.5481 11.3008 36.4732 11.395 36.4686 11.3968C36.3497 11.4427 36.5747 11.1601 36.5494 11.2952Z" fill="#113182"/>
</svg>
