<svg width="64" height="64" viewBox="0 0 64 64" fill="none" xmlns="http://www.w3.org/2000/svg">
<path d="M1.56622 6C1.56622 3.79086 3.35708 2 5.56622 2H57.5662C59.7754 2 61.5662 3.79086 61.5662 6V58C61.5662 60.2091 59.7754 62 57.5662 62H5.56622C3.35708 62 1.56622 60.2091 1.56622 58V6Z" fill="#1D52D8"/>
<path d="M25.4046 0.0995632C27.2484 -0.0553033 30.8037 0.00794268 32.7594 0.0426774C32.7953 0.0432471 32.8311 0.0438168 32.867 0.0443865C33.3312 0.0526143 33.7702 0.0547516 34.2846 0.0570821C35.5112 0.0626389 37.1685 0.0701852 40.6274 0.1689C41.6337 0.165263 42.6403 0.163285 43.6466 0.163285C48.2865 0.163286 52.9264 0.186754 57.5662 0.225651C60.6459 0.171856 63.3763 2.95652 63.2792 6C63.2336 10.1339 63.1786 14.2678 63.12 18.4018C63.1208 18.5391 63.1216 18.6787 63.1224 18.8198C63.1384 21.5457 63.1582 24.9258 63.1017 27.0497C63.0298 29.7498 62.9632 31.5838 62.9056 33.09C62.7863 41.3933 62.6791 49.6967 62.6304 58C62.6285 58.4153 62.5759 58.832 62.4726 59.2357C61.9425 61.4285 59.811 63.0781 57.5662 63.0392C56.6259 63.0374 55.6855 63.0364 54.7453 63.0364C52.2539 63.0364 49.7618 63.0413 47.2704 63.0506C45.8194 63.0843 44.44 63.1243 43.1608 63.1614C41.3632 63.2135 39.7629 63.2598 38.4411 63.2749C35.2563 63.3113 31.6436 63.2539 28.9608 63.2112C28.5223 63.2042 28.1083 63.1976 27.7255 63.1919C25.5948 63.2131 23.4636 63.2357 21.333 63.2588C21.1907 63.246 21.0473 63.2325 20.9016 63.2188C19.0832 63.0471 16.8477 63.0493 13.3289 63.0525C11.7966 63.0539 10.0206 63.0554 7.92979 63.043C6.76738 63.0361 6.0927 62.9845 5.56622 62.9348C5.4626 62.9269 5.36552 62.9159 5.27075 62.9026C5.06795 62.8741 4.88108 62.8357 4.69356 62.7893C4.05632 62.6283 3.3843 62.4304 2.67676 61.9885C1.78851 61.4315 0.74104 60.3461 0.596817 58.5817C0.582577 58.3834 0.58016 58.1898 0.587821 58C0.793542 53.9119 0.63663 52.0525 0.516877 50.6336C0.480439 50.2019 0.447516 49.8106 0.429229 49.4099C0.369948 48.1108 0.428683 46.2599 0.509308 44.861C0.573239 43.7518 0.50986 41.5326 0.429229 39.8496C0.39874 39.2132 0.397974 38.3526 0.397246 37.339C0.396492 36.29 0.395806 35.0764 0.3616 33.7781C0.27516 30.4971 0.233263 28.7535 0.199732 27.3517C0.190172 26.9521 0.181467 26.5799 0.172388 26.2081C0.143698 25.033 0.120062 23.5748 0.0962144 22.0984C0.0676757 20.3317 0.0386983 18.5385 2.12193e-05 17.1742C0.0409528 13.6379 0.0915918 10.1013 0.142114 6.56533C0.144849 6.37594 0.148905 6.18735 0.154253 6C0.171376 3.76685 1.79308 2.05527 3.15893 1.60925C4.73056 1.07477 5.59065 1.59181 5.56622 1.88426C5.56907 2.22711 4.81357 2.46193 4.01664 3.171C3.30116 3.79408 2.6864 4.85043 2.74696 6C2.75231 6.18735 2.75637 6.37594 2.75911 6.56533C2.81139 10.2243 2.8637 13.884 2.90535 17.5433C2.95609 22.0008 2.99104 26.4587 2.99104 30.9162C2.99104 34.0345 2.98319 37.1528 2.96907 40.2711C2.96762 40.5922 2.96601 40.9132 2.96443 41.2343C3.04553 43.8539 3.11929 46.4685 3.14559 48.3107C3.16729 49.8317 3.12401 50.9406 3.08699 51.8903C3.06152 52.5438 3.03897 53.1221 3.04256 53.7072C3.04448 54.0214 3.04949 54.4507 3.0555 54.9683C3.06505 55.7906 3.07718 56.8363 3.08379 58C3.04489 59.1478 4.07091 60.397 5.35181 60.5148C5.42186 60.5233 5.4929 60.5292 5.56622 60.5323C6.93965 60.5694 8.49321 60.633 9.98148 60.6941C12.2858 60.7886 14.4346 60.8766 15.5194 60.8496C17.4243 60.8021 19.6089 60.8423 21.5393 60.8779C23.3806 60.9119 24.9909 60.9416 25.9068 60.8867C27.0011 60.8211 27.9344 60.8479 29.3218 60.8874C30.2842 60.9149 31.4653 60.9484 33.0704 60.9619C34.9235 60.9775 36.2346 61.0234 37.349 61.0625C38.9173 61.1175 40.0974 61.1588 41.8561 61.0828C43.8098 60.9983 45.8517 60.9445 47.4598 60.9712C48.1923 60.9833 49.0302 60.9804 49.9019 60.9773C51.0561 60.9732 52.27 60.9689 53.3783 60.9993C54.2917 61.0243 55.0466 61.0882 55.7146 61.1448C55.923 61.1624 56.123 61.1793 56.3167 61.1941C56.7332 61.1936 57.1497 61.193 57.5662 61.1923C57.8159 61.1917 58.0638 61.1623 58.3045 61.1045C58.3933 61.0729 58.4846 61.0353 58.5775 60.9915C59.04 60.7724 59.5571 60.3923 59.9707 59.7765C60.3422 59.2173 60.5197 58.611 60.5317 58C60.5401 57.3887 60.5559 56.7845 60.5721 56.1665C60.6016 55.0404 60.6324 53.8687 60.6214 52.5255C60.6138 51.6096 60.5877 50.5667 60.5618 49.5329C60.5234 47.9975 60.4855 46.4813 60.5096 45.4278C60.5186 45.033 60.5587 44.6937 60.5987 44.3579C60.5989 44.3564 60.5992 44.3549 60.5994 44.3534C60.6021 44.3307 60.6048 44.3078 60.6075 44.285C60.5769 41.7193 60.5432 39.1534 60.5076 36.5878C60.4973 36.3654 60.4871 36.1408 60.4771 35.9181C60.4281 34.8302 60.3806 33.7731 60.313 33.0838C60.2398 32.3369 60.1973 30.4588 60.1524 28.4797C60.123 27.1837 60.0927 25.8437 60.052 24.7498C60.0283 24.1104 60.0697 23.5037 60.1124 22.8796C60.1522 22.2973 60.193 21.6993 60.1829 21.0458C60.1778 20.7184 60.1607 20.3648 60.1424 19.9875C60.1262 19.6552 60.1091 19.304 60.0987 18.9363C60.089 18.5946 60.1115 17.8336 60.1402 16.8579C60.1579 16.2549 60.1779 15.5697 60.1944 14.8507C60.1686 12.95 60.1439 11.0489 60.1209 9.14824C60.0846 8.75174 60.0375 8.40766 59.9771 8.13529C59.9337 7.93989 59.8819 7.77348 59.8289 7.60258C59.7568 7.37002 59.6823 7.12937 59.6228 6.79773C59.5764 6.53853 59.5579 6.23282 59.5772 6.02757C59.5781 6.01817 59.579 6.00899 59.5801 6C59.5895 5.95742 59.6034 5.92333 59.6157 5.89162C59.6311 5.851 59.644 5.81412 59.6389 5.77086C59.6351 5.73958 59.6187 5.70886 59.5977 5.67231C59.5637 5.61358 59.5195 5.54176 59.4844 5.42686C59.3583 4.99978 59.047 4.54747 58.6141 4.2764C58.2893 4.06825 57.9168 3.9675 57.5662 3.96777C57.2504 3.96733 56.9507 3.96827 56.6736 3.97122C55.6983 3.9816 54.3084 3.93545 52.9162 3.88943C51.945 3.85733 50.9723 3.82539 50.1379 3.81228C49.3202 3.79944 48.4687 3.82497 47.6442 3.84988C46.6545 3.87978 45.7025 3.90866 44.8935 3.86819C44.7299 3.85997 44.5267 3.80993 44.2718 3.74734C44.0912 3.70297 43.8833 3.65225 43.6466 3.60549C42.6169 3.60549 41.5869 3.60343 40.5571 3.59963C40.5208 3.60642 40.4834 3.61333 40.4459 3.62038C40.4453 3.62054 40.4447 3.62071 40.4441 3.62087C39.5983 3.78008 38.4409 3.99786 36.8148 3.86794C36.4014 3.83492 36.1412 3.77392 35.9068 3.71902C35.6765 3.6651 35.4707 3.61685 35.1695 3.60671C34.8274 3.59522 34.4235 3.62833 33.9831 3.66433C33.3648 3.71488 32.6742 3.77136 31.9812 3.71877C31.9339 3.71518 31.883 3.71124 31.8301 3.7073C31.3278 3.66989 30.5841 3.61455 29.8442 3.50319C27.6488 3.47346 25.4531 3.43865 23.2578 3.40065C19.5983 3.3373 15.9381 3.26507 12.2789 3.19288C10.4987 3.15735 8.79139 3.0057 7.53254 2.76294C6.27362 2.51984 5.56622 2.20742 5.56622 1.88426C5.56633 1.56114 6.27371 1.24891 7.53254 1.00583C8.7914 0.763056 10.4986 0.611426 12.2789 0.575891C15.1819 0.518618 18.0858 0.461264 20.9891 0.408407C21.1412 0.401696 21.2941 0.395205 21.4462 0.38912C22.578 0.343838 23.6281 0.252889 24.6789 0.16182C24.9203 0.140902 25.1621 0.119938 25.4046 0.0995632Z" fill="#113182"/>
<g clip-path="url(#clip0_492_2014)">
<path d="M20.5662 42.9751C20.5662 44.3562 21.3703 45 22.3141 45C22.7219 45 23.1531 44.8712 23.5609 44.6372L41.0863 34.2907C42.17 33.6587 42.5662 33.2139 42.5662 32.5C42.5662 31.7743 42.17 31.3295 41.0863 30.6976L23.5609 20.3511C23.1531 20.117 22.7219 20 22.3141 20C21.3703 20 20.5662 20.632 20.5662 22.0131V42.9751Z" fill="#FEFEFE"/>
<path d="M29.6528 25.388C28.3582 24.3149 26.6351 24.6627 24.9768 23.4908C23.8892 22.7221 23.539 22.1603 22.8435 21.5663L22.8585 21.575C22.7306 21.4272 22.524 21.3078 22.3141 21.3148C22.253 21.3167 22.1974 21.3308 22.1592 21.3533C22.0713 21.4122 22.0818 21.4148 22.0252 21.4923C21.9735 21.5698 21.9054 21.7634 21.8877 22.0131C21.8197 23.37 21.7085 24.5381 21.8706 25.191C22.1269 26.2229 21.3521 26.3318 21.5242 27.7972C21.6962 29.2625 21.5951 30.1506 21.3433 31.4322C21.0914 32.7138 20.8764 36.6511 21.1858 38.0828C21.4952 39.5146 20.9584 41.1476 20.8311 42.1296C20.7914 42.4355 20.7371 42.6762 20.6807 42.8608C20.6567 42.939 20.6066 42.9751 20.5572 42.9751C20.5572 42.9751 20.5571 42.9751 20.5571 42.9751C20.4956 42.9751 20.435 42.9191 20.4273 42.8186C20.3895 42.3309 20.2899 41.6019 20.0667 40.7407C19.6504 39.135 20.1104 38.9595 19.8965 36.7912C19.6826 34.6229 19.255 33.3202 19.5315 30.769C19.808 28.2178 18.6509 27.6318 19.3066 24.0305C19.4544 23.2189 19.5074 22.571 19.499 22.0131C19.3637 20.6038 20.3028 18.5792 22.3141 18.3757C22.9959 18.2845 23.7511 18.3833 24.4908 18.7311L24.5105 18.7426C24.8515 18.8873 25.2205 19.0613 25.6258 19.2768C28.798 20.9627 32.3596 23.8407 34.2507 24.8928C36.1417 25.945 38.7155 27.3007 41.2752 28.9974C41.4672 29.1246 41.6643 29.2512 41.8658 29.3773C42.2355 29.6108 42.6385 29.8438 43.122 30.2913C43.61 30.6825 44.1554 31.7391 44.1056 32.5C44.1705 33.2237 43.6754 34.2825 43.1855 34.7033C42.7059 35.1735 42.2907 35.4251 41.893 35.6739C40.578 36.4908 39.2263 37.2986 37.8737 37.9509C34.8137 39.4265 30.5093 41.5497 28.4827 42.4661C26.4561 43.3825 25.9644 43.6096 24.2067 44.8185C24.0842 44.9027 23.9547 44.9883 23.8191 45.0745C23.4118 45.3232 22.8949 45.5166 22.3141 45.4971C21.7922 45.4837 21.2207 45.2567 20.867 44.8365C20.5071 44.4201 20.3982 43.8985 20.4234 43.4629C20.5231 42.6857 20.7262 42.9349 20.9241 43.5366C21.2294 44.3796 21.9093 44.6436 22.3141 44.4094C22.332 44.3986 22.3491 44.3867 22.3655 44.3738C22.6908 44.1056 22.8219 43.8426 22.9922 43.6462L22.9801 43.6533C23.3167 43.3278 23.7358 43.0994 24.4674 42.8685C25.8089 42.445 25.9984 41.4958 26.7285 41.1611C27.4587 40.8264 27.6636 41.1994 30.9951 38.852C34.3266 36.5047 36.2018 35.3005 37.4865 34.4507C38.1151 34.0349 39.1431 33.5078 40.2742 32.9151C40.5883 32.7568 40.8844 32.5804 41.0099 32.4786C41.0734 32.4291 41.076 32.4202 41.0629 32.4608C41.0489 32.5007 41.0535 32.5493 41.0577 32.5C41.0539 32.4223 41.0729 32.5332 41.0821 32.5403C41.0875 32.5499 41.0035 32.4647 40.8609 32.3773C40.7237 32.2904 40.5284 32.1771 40.2963 32.0523C37.9476 30.7573 34.2794 28.5001 32.5891 27.7299C30.7089 26.8732 30.9473 26.4611 29.6528 25.388Z" fill="#113182"/>
</g>
<defs>
<clipPath id="clip0_492_2014">
<rect width="28" height="28" fill="white" transform="translate(17.5662 18)"/>
</clipPath>
</defs>
</svg>
