<svg width="13" height="32" viewBox="0 0 13 32" fill="none" xmlns="http://www.w3.org/2000/svg">
<path d="M2 1.42065H10.85V29.4207H2V1.42065Z" fill="#FFDACE"/>
<path d="M6.41763 30.6611C4.92378 30.4168 3.72186 31.3882 2 31.4199L0.114848 31.5222L0.000789285 29.4207C-0.0020256 29.2675 0.00259459 29.1102 0.0161666 28.9483C0.182324 26.9656 0.80588 26.6686 0.665581 24.3979C0.525308 22.1273 0.9518 19.8554 0.69561 18.8444C0.439345 17.8334 1.21413 17.7267 1.04205 16.291C0.869986 14.8554 0.971118 13.9852 1.22295 12.7297C1.47479 11.474 1.68979 7.61649 1.38042 6.21378C1.07106 4.81106 1.60785 3.21118 1.73516 2.24903C1.77482 1.94933 1.82909 1.71348 1.88555 1.53266C1.90949 1.45607 1.95958 1.42068 2.00901 1.42065C2.00905 1.42065 2.00908 1.42065 2.00911 1.42065C2.07067 1.42068 2.13119 1.47555 2.13897 1.57399C2.17672 2.05186 2.27633 2.76606 2.49956 3.60979C2.91581 5.18297 2.45584 5.35488 2.66973 7.47923C2.88362 9.60355 3.31124 10.8799 3.03472 13.3794C2.75823 15.8789 3.91533 16.453 3.25957 19.9813C2.60386 23.5096 3.81399 23.8809 3.97491 27.3969C4.00465 28.0468 4.00608 28.7282 3.989 29.4207L2 27.4317C5.05379 27.507 8.32233 27.9423 10.0501 27.8972C10.3064 27.8905 10.5734 27.8825 10.85 27.874L9.30335 29.4207C9.24145 27.4102 9.1495 24.891 9.28989 22.2498C9.44959 19.2451 9.04645 15.5359 9.33139 12.2192C9.61633 8.9026 9.97622 4.21356 10.2174 2.04728C10.2425 1.82187 10.2655 1.61419 10.2866 1.42065L10.85 1.98408C9.1837 1.80299 8.56548 1.77306 6.69739 1.90508C5.49887 1.98978 3.8478 1.90994 2.45318 1.59844C1.75131 1.44167 1.91036 1.22339 2.6168 1.11895C3.64986 0.966231 4.49789 1.06826 5.03018 0.795463C6.09381 0.250273 6.54586 0.0411305 7.88862 0.358451C9.2313 0.675733 9.86397 -0.0453423 10.6467 0.0376508C10.7201 0.0454438 10.7866 0.0562519 10.85 0.0691694L12.1244 3.45707e-06L12.2015 1.42065C12.0768 2.03282 11.7554 2.36072 12.0523 5.96705C12.38 9.94698 12.4637 12.1288 12.5423 13.6359C12.621 15.1431 12.2519 18.2902 12.3851 20.7465C12.5033 22.9252 12.4206 27.1001 12.5526 29.4207L12.6397 31.0261L10.85 31.1232C10.5543 31.1401 10.2888 31.1604 10.0613 31.185C8.0484 31.4031 8.04426 30.927 6.41763 30.6611Z" fill="#C44B25"/>
</svg>
